<svg width="16" height="16" viewBox="0 0 16 16" fill="none" xmlns="http://www.w3.org/2000/svg">
    <path d="M14.667 6v4c0 .153 0 .3-.014.447a.77.77 0 0 0-.093-.114c-.007-.006-.013-.02-.02-.026a2.964 2.964 0 0 0-2.206-.974c-.84 0-1.607.347-2.154.907a3 3 0 0 0-.413 3.64c.146.247.333.473.546.66.014.007.02.013.027.02.034.033.067.06.107.093-.14.014-.293.014-.447.014H6c-3.333 0-4.667-1.334-4.667-4.667V6c0-3.333 1.334-4.667 4.667-4.667h4c3.334 0 4.667 1.334 4.667 4.667zM1.68 4.74h12.64M5.68 1.407v3.24M10.32 1.407v2.94" stroke="#003466" stroke-linecap="round" stroke-linejoin="round"/>
    <path d="M15.334 12.333c0 .24-.027.474-.087.7a2.991 2.991 0 0 1-2.913 2.3 2.9 2.9 0 0 1-1.88-.68h-.007c-.04-.033-.073-.06-.107-.093a.091.091 0 0 0-.027-.02 2.75 2.75 0 0 1-.546-.66 3 3 0 0 1 .413-3.64 3.006 3.006 0 0 1 2.154-.907c.873 0 1.666.374 2.206.974.007.006.014.02.02.026a.77.77 0 0 1 .093.114c.427.513.68 1.173.68 1.886zM13.453 12.32h-2.24M12.334 11.227v2.24" stroke="#003466" stroke-miterlimit="10" stroke-linecap="round" stroke-linejoin="round"/>
</svg>
