<svg width="17" height="16" viewBox="0 0 17 16" fill="none" xmlns="http://www.w3.org/2000/svg">
    <path d="M7.167 10.667c0-1.107 0-2 2-2h2.666c2 0 2-.667 2-2V5.333c0-1.333 0-2-2-2h-.667M8.5 1.333H5.833a6.316 6.316 0 0 0 0 4H8.5c.433-1.3.433-2.7 0-4z" stroke="#003466" stroke-linecap="round" stroke-linejoin="round"/>
    <path d="M5.833 1.333h-.667c-1.333 0-2 .667-2 2 0 1.334.667 2 2 2h.667c-.667-1.333-.667-2.666 0-4zM9.167 1.333H8.5c.667 1.334.667 2.667 0 4h.667c1.333 0 2-.666 2-2 0-1.333-.667-2-2-2zM6.833 14.667H7.5c1 0 1-.667 1-1v-2c0-.334 0-1-1-1h-.667c-1 0-1 .666-1 1v2c0 .333 0 1 1 1z" stroke="#003466" stroke-linecap="round" stroke-linejoin="round"/>
</svg>
